<svg width="230" height="29" viewBox="0 0 230 29" fill="none" xmlns="http://www.w3.org/2000/svg">
<rect width="136.441" height="5" fill="#777777"/>
<rect x="17.5424" y="8" width="107.203" height="5" fill="#777777"/>
<rect x="171.525" y="8" width="33.1356" height="5" fill="#777777"/>
<rect x="146.186" width="27.2881" height="5" fill="#777777"/>
<rect x="134.492" y="8" width="27.2881" height="5" fill="#777777"/>
<rect x="183.22" width="27.2881" height="5" fill="#777777"/>
<rect x="220.254" width="9.74576" height="5" fill="#777777"/>
<rect x="230" y="29" width="136.441" height="5" transform="rotate(-180 230 29)" fill="#777777"/>
<rect x="212.458" y="21" width="107.203" height="5" transform="rotate(-180 212.458 21)" fill="#777777"/>
<rect x="58.4746" y="21" width="33.1356" height="5" transform="rotate(-180 58.4746 21)" fill="#777777"/>
<rect x="83.8136" y="29" width="27.2881" height="5" transform="rotate(-180 83.8136 29)" fill="#777777"/>
<rect x="95.5085" y="21" width="27.2881" height="5" transform="rotate(-180 95.5085 21)" fill="#777777"/>
<rect x="46.7797" y="29" width="27.2881" height="5" transform="rotate(-180 46.7797 29)" fill="#777777"/>
<rect x="9.74576" y="29" width="9.74576" height="5" transform="rotate(-180 9.74576 29)" fill="#777777"/>
</svg>
